<svg version="1.2" xmlns="http://www.w3.org/2000/svg" viewBox="0 0 150 150" width="72" height="72">
	<path id="GhostProxies Logo Mark" fill-rule="evenodd" style="fill: #fff;" d="m75 0c41.47 0 75 33.52 75 75h-0.06q0.06 0.49 0.06 1v66c0 4.42-3.58 8-8 8-4.42 0-8-3.58-8-8v-66q0-0.51 0.06-1h-0.06c0-32.63-26.37-59-59-59-32.63 0-59 26.37-59 59h-0.06q0.06 0.49 0.06 1v66c0 4.42-3.58 8-8 8-4.42 0-8-3.58-8-8v-66q0-0.51 0.06-1h-0.06c0-41.48 33.52-75 75-75zm32 90c4.42 0 8 3.58 8 8v44c0 4.42-3.58 8-8 8-4.42 0-8-3.58-8-8v-44c0-4.42 3.58-8 8-8zm-32 23c4.42 0 8 3.58 8 8v21c0 4.42-3.58 8-8 8-4.42 0-8-3.58-8-8v-21c0-4.42 3.58-8 8-8zm-32 37c-4.42 0-8-3.58-8-8 0-4.42 3.58-8 8-8 4.42 0 8 3.58 8 8 0 4.42-3.58 8-8 8z"/>
</svg>
